<?xml version="1.0" encoding="utf-8"?>
<!-- Uploaded to: SVG Repo, www.svgrepo.com, Generator: SVG Repo Mixer Tools -->
<svg width="800px" height="800px" viewBox="0 0 1024 1024" class="icon"  version="1.1" xmlns="http://www.w3.org/2000/svg"><path d="M550.4 713.6c0 19.7-20 35.7-44.7 35.7-24.7 0-44.7-16-44.7-35.7" fill="#CCCCCC" /><path d="M653.9 520.8c0-76.8-64-139-142.9-139s-142.9 62.2-142.9 139c0 16.6 3.1 32.4 8.6 47.1L460 774.8h97l81.5-191.5c11.6-26 15.4-33.3 15.4-62.5z" fill="#FBBA22" /><path d="M612.9 766.4c0 14.8-12.1 26.8-27 26.8H425.5c-14.9 0-27-12-27-26.8s12.1-26.8 27-26.8h160.3c15 0 27.1 12 27.1 26.8zM612.9 820c0 14.8-12.1 26.8-27 26.8H425.5c-14.9 0-27-12-27-26.8s12.1-26.8 27-26.8h160.3c15 0 27.1 12 27.1 26.8z" fill="#CCCCCC" /><path d="M511 363.9c-88.7 0-160.8 70.4-160.8 156.9 0 18 3.3 36 9.9 53.8l59.5 147.8c-21.9 2.9-38.9 21.5-38.9 44.1 0 10.1 3.5 19.3 9.2 26.8-5.7 7.5-9.2 16.7-9.2 26.8 0 24.6 20.1 44.7 44.9 44.7h17.6c0 29.6 28.1 53.6 62.5 53.6s62.5-24 62.5-53.6h17.6c24.8 0 44.9-20 44.9-44.7 0-10.1-3.5-19.3-9.2-26.8 5.7-7.5 9.2-16.7 9.2-26.8 0-20.3-13.8-37.4-32.6-42.7l56.7-133.1 1.4-3.1c11-24.7 15.6-34.9 15.6-66.8 0-86.5-72.1-156.9-160.8-156.9z m-5.3 518.7c-14.3 0-26.8-8.3-26.8-17.9h53.6c0 9.5-12.5 17.9-26.8 17.9z m80.2-53.6H425.5c-5.1 0-9.2-4-9.2-8.9s4.1-8.9 9.2-8.9h160.3c5.1 0 9.2 4 9.2 8.9s-4.1 8.9-9.1 8.9z m0-53.6H425.5c-5.1 0-9.2-4-9.2-8.9s4.1-8.9 9.2-8.9h160.3c5.1 0 9.2 4 9.2 8.9s-4.1 8.9-9.1 8.9z m-90.6-53.6l-18.5-119.9c8.6 3.8 20 7.1 34 7.1 13.1 0 23.7-2.9 31.6-6.4L524 721.8h-28.7zM623.6 573l-63.4 148.8h-18l21-136.3c0.6-3.9-1.4-7.7-5-9.4-3.5-1.7-7.8-0.9-10.5 2-0.5 0.5-12.4 13-36.9 13-25 0-39.1-12.9-39.6-13.4-2.8-2.7-6.9-3.3-10.3-1.5-3.4 1.8-5.3 5.5-4.7 9.3l21 136.3h-19.4l-64.4-160.1c-5-13.4-7.5-27.1-7.5-40.9 0-66.8 56.1-121.1 125.1-121.1s125.1 54.4 125.1 121.1c0 24.2-2.4 29.6-12.5 52.2zM371.9 373.3c7-7 6.9-18.3-0.1-25.3l-71.5-71c-7-7-18.3-6.9-25.3 0.1s-6.9 18.3 0.1 25.3l71.6 71.1c3.5 3.5 8 5.2 12.6 5.2 4.6-0.1 9.2-1.8 12.6-5.4zM747 277.1c-6.9-7-18.3-7-25.3-0.1l-71.6 71.1c-7 6.9-7 18.2-0.1 25.3 3.5 3.5 8.1 5.3 12.7 5.3s9.1-1.7 12.6-5.2l71.6-71.1c7-7 7.1-18.3 0.1-25.3zM511 328.7c9.9 0 17.9-8 17.9-17.9V185.7c0-9.9-8-17.9-17.9-17.9s-17.9 8-17.9 17.9v125.1c0 9.9 8 17.9 17.9 17.9z" fill="#211F1E" /></svg>